<?xml version="1.0" encoding="UTF-8"?>
<svg id="Layer_2" data-name="Layer 2" xmlns="http://www.w3.org/2000/svg" viewBox="0 0 1922.52 1080">
  <defs>
    <style>
      .cls-1 {
        fill: #bfc8ad;
      }

      .cls-2 {
        fill: #dbcfb0;
      }
    </style>
  </defs>
  <g id="Layer_1-2" data-name="Layer 1">
    <g>
      <path class="cls-2" d="M1922.52,271.85c-286.57-96.32-515.73-94.15-667.79-76.39-326.33,38.12-492.83,170.89-807.89,122.22C252.51,287.67,97.72,203.47,2.52,141.98V0h1920v271.85Z"/>
      <path class="cls-1" d="M1920,380.56c-290.3-139.32-521.35-157.17-677.79-148.17-323.48,18.61-496.98,161.74-842.87,129.13C224.76,345.06,86.58,291.41,0,250.7V108.72c92.64,20.13,240.08,47.2,422.82,57.93,355.24,20.87,540.48-37.8,972.66-57.93,121.67-5.67,302.35-10.12,524.52,0v271.85Z"/>
      <path class="cls-1" d="M2.52,748.08c280.08,79.22,502.01,83.4,655.09,71.74,372.33-28.36,537.9-165.7,820.6-127.7,209.71,28.19,357.45,135.87,444.32,214.52v173.36H2.52v-331.92Z"/>
      <path class="cls-2" d="M2.52,608.16c84.22,7.5,216.28,19.95,378.04,38.27,386.69,43.79,462.99,66.76,539.89,66.47,14.25-.06,34.99-1.27,61.18-4.44,208.23-25.26,261.05-142.13,368.48-114.26,42.09,10.92,110.23,48.64,142.96,66.76,21.59,11.95,36.72,21.47,40.28,23.38,119.2,63.74,259.54,81.71,389.17,80.59v171.39c-254.94,66.38-428.96,49.25-544.13,17.9-163.91-44.61-219.8-121.07-408.52-136.1-90.83-7.24-73.48,10.82-319.29,25.84-208.26,12.72-261.6,2.26-389.75,23-114.19,18.49-202.62,47.97-258.3,69.36v-328.15Z"/>
      <path class="cls-2" d="M2.52,610.38c84.22,7.5,216.28,19.95,378.04,38.27,386.69,43.79,462.99,66.76,539.89,66.47,14.25-.06,34.99-1.27,61.18-4.44,208.23-25.26,261.05-142.13,368.48-114.26,42.09,10.92,110.23,48.64,142.96,66.76,21.59,11.95,36.72,21.47,40.28,23.38,119.2,63.74,259.54,81.71,389.17,80.59v171.39c-254.94,66.38-428.96,49.25-544.13,17.9-163.91-44.61-219.8-121.07-408.52-136.1-90.83-7.24-73.48,10.82-319.29,25.84-208.26,12.72-261.6,2.26-389.75,23-114.19,18.49-202.62,47.97-258.3,69.36v-328.15Z"/>
    </g>
  </g>
</svg>