<?xml version="1.0" encoding="UTF-8"?>
<svg id="Layer_2" data-name="Layer 2" xmlns="http://www.w3.org/2000/svg" viewBox="0 0 1920 491.33">
  <defs>
    <style>
      .cls-1 {
        fill: #bfc8ad;
      }

      .cls-2 {
        fill: #dbcfb0;
      }
    </style>
  </defs>
  <g id="Layer_3" data-name="Layer 3">
    <g>
      <path class="cls-1" d="M0,159.41c280.08,79.22,502.01,83.4,655.09,71.74,372.33-28.36,537.9-165.7,820.6-127.7,209.71,28.19,357.45,135.87,444.32,214.52v173.36H0V159.41Z"/>
      <path class="cls-1" d="M0,62.56c280.08,79.22,502.01,83.4,655.09,71.74C1027.42,105.94,1192.99-31.4,1475.68,6.6c209.71,28.19,357.45,135.87,444.32,214.52v173.36H0V62.56Z"/>
      <path class="cls-2" d="M0,66.34c84.22,7.5,216.28,19.95,378.04,38.27,386.69,43.79,462.99,66.76,539.89,66.47,14.25-.06,34.99-1.27,61.18-4.44,208.23-25.26,261.05-142.13,368.48-114.26,42.09,10.92,110.23,48.64,142.96,66.76,21.59,11.95,36.72,21.47,40.28,23.38,119.2,63.74,259.54,81.71,389.17,80.59v171.39c-254.94,66.38-428.96,49.25-544.13,17.9-163.91-44.61-219.8-121.07-408.52-136.1-90.83-7.24-73.48,10.82-319.29,25.84-208.26,12.72-261.6,2.26-389.75,23C144.11,343.62,55.69,373.1,0,394.49V66.34Z"/>
    </g>
  </g>
</svg>