<?xml version="1.0" encoding="UTF-8"?>
<svg id="Layer_2" data-name="Layer 2" xmlns="http://www.w3.org/2000/svg" viewBox="0 0 1922.52 1080">
  <defs>
    <style>
      .cls-1 {
        fill: #fff;
      }

      .cls-2 {
        fill: none;
        stroke: #fff;
        stroke-miterlimit: 10;
      }

      .cls-3 {
        fill: #bfc8ad;
      }

      .cls-4 {
        fill: #dbcfb0;
      }
    </style>
  </defs>
  <g id="Layer_3" data-name="Layer 3">
    <g>
      <g>
        <path class="cls-4" d="M1922.52,271.85c-286.57-96.32-515.73-94.15-667.79-76.39-326.33,38.12-492.83,170.89-807.89,122.22C252.51,287.67,97.72,203.47,2.52,141.98V0h1920v271.85Z"/>
        <path class="cls-3" d="M1920,380.56c-290.3-139.32-521.35-157.17-677.79-148.17-323.48,18.61-496.98,161.74-842.87,129.13C224.76,345.06,86.58,291.41,0,250.7V108.72c92.64,20.13,240.08,47.2,422.82,57.93,355.24,20.87,540.48-37.8,972.66-57.93,121.67-5.67,302.35-10.12,524.52,0v271.85Z"/>
        <path class="cls-3" d="M2.52,748.08c280.08,79.22,502.01,83.4,655.09,71.74,372.33-28.36,537.9-165.7,820.6-127.7,209.71,28.19,357.45,135.87,444.32,214.52v173.36H2.52v-331.92Z"/>
        <path class="cls-4" d="M2.52,608.16c84.22,7.5,216.28,19.95,378.04,38.27,386.69,43.79,462.99,66.76,539.89,66.47,14.25-.06,34.99-1.27,61.18-4.44,208.23-25.26,261.05-142.13,368.48-114.26,42.09,10.92,110.23,48.64,142.96,66.76,21.59,11.95,36.72,21.47,40.28,23.38,119.2,63.74,259.54,81.71,389.17,80.59v171.39c-254.94,66.38-428.96,49.25-544.13,17.9-163.91-44.61-219.8-121.07-408.52-136.1-90.83-7.24-73.48,10.82-319.29,25.84-208.26,12.72-261.6,2.26-389.75,23-114.19,18.49-202.62,47.97-258.3,69.36v-328.15Z"/>
        <path class="cls-4" d="M2.52,610.38c84.22,7.5,216.28,19.95,378.04,38.27,386.69,43.79,462.99,66.76,539.89,66.47,14.25-.06,34.99-1.27,61.18-4.44,208.23-25.26,261.05-142.13,368.48-114.26,42.09,10.92,110.23,48.64,142.96,66.76,21.59,11.95,36.72,21.47,40.28,23.38,119.2,63.74,259.54,81.71,389.17,80.59v171.39c-254.94,66.38-428.96,49.25-544.13,17.9-163.91-44.61-219.8-121.07-408.52-136.1-90.83-7.24-73.48,10.82-319.29,25.84-208.26,12.72-261.6,2.26-389.75,23-114.19,18.49-202.62,47.97-258.3,69.36v-328.15Z"/>
      </g>
      <g>
        <path d="M1380.87,580.05c-2.51-30.5-17.43-59.96-34.95-84.5-12.41-17.38-29.9-40.26-49.82-49.54-16.2-7.55-28.66-11.74-29.94-33.47-1.12-18.96,15.33-27.98,16.6-45.2,1.08-14.68-4.73-29.08-16.17-38.48-19.09-15.68-47.28-12.93-62.96,6.16-3.51,4.27-4.95,9.27-7.83,13.7-3.68,5.68-8.87,9.6-8.56,17.12.24,5.6,3.76,10.47,7.34,14.78,3.65,4.4,6.59,9.38,10.76,13.27,4.39,4.09,9.16,7.38,11.35,13.28,6.78,18.27,2.57,38.75,1.24,57.45-1.59,22.34-.87,44.85,2.16,67.05,1.87,13.71,4.67,27.42,9.33,40.4,2.12,5.9,4.62,11.65,7.6,17.19,9.53,17.71,24.34,33.14,43.07,40.49,12.91,5.07,26.93,6.04,40.65,5.12,12.16-.82,26.93-1.79,38.39-6.07,18.38-6.87,23.15-31.56,21.73-48.75Z"/>
        <path d="M1250.92,330.1c3.68-6.01,7.35-12.02,11.03-18.03,1.89-3.08,4.54-6.58,8.14-6.23,3.56.34,5.54,4.27,6.32,7.75,2.31,10.27-.21,21.52-6.67,29.83"/>
        <path d="M1226.99,323.03c2.94-4.81,5.89-9.63,8.83-14.44,1.51-2.47,3.64-5.27,6.52-4.99,2.85.27,4.44,3.42,5.06,6.21,1.85,8.23-.17,17.23-5.34,23.89"/>
        <path d="M1360.84,623.71c17.44,30.65,26.68,65.92,26.51,101.18-.09,18.59-3.36,38.48-16.17,51.96-12.22,12.86-30.71,17.37-48.27,19.89-7.8,1.12-15.81,1.95-23.49.17s-15.04-6.63-17.91-13.96c-2.87-7.34.17-17.03,7.5-19.9,6.54-2.56,13.92.69,19.6,4.83,5.68,4.14,10.85,9.35,17.56,11.45,10.14,3.17,21.49-1.89,28.34-10.01,6.85-8.12,9.95-18.73,11.88-29.17,7.34-39.8-.41-82.2-21.35-116.84"/>
        <path class="cls-2" d="M1326.17,634.5c-6.68-6.85-10.69-11-14.6-19.73-3.91-8.73-4.39-19.64,1.27-27.35,2.72-3.69,6.71-6.43,11.14-7.62"/>
        <path class="cls-1" d="M1246.59,603.96c-1.35-4.06-2.19-8.29-2.78-11.52-5.67-31.51-3.46-64.18,6.39-94.47l.9.29c-9.8,30.14-11.99,62.65-6.35,94.01.58,3.2,2.15,9.65,3.48,13.66l-1.64-1.97Z"/>
        <path d="M908.19,507.93c0,1.39-1.74,4-1.74,8,0,4.35,7.13,18.43,27.99,23.99,9.21-36.68,23.12-68.83,33.9-78.22.87-4.35,4.52-9.56,8.69-9.56,1.39,0,2.78.52,4.17,1.91,12.34,12.34,19.99,47.11,23.99,79.26,2.61-.52,4.35-1.04,5.04-1.04,3.3,0,5.56,4.52,5.56,6.08,0,4-5.56,7.13-9.04,8.52,1.74,15.99,2.43,30.42,2.43,39.63,0,6.26-.35,10.08-.87,10.78-1.22,1.22-3.3,1.74-5.73,1.74-7.3,0-17.73-4.87-17.73-8.86,0-.7.35-1.22.87-1.74.7-.7,1.22-9.91,1.22-22.94,0-4-.17-8.34-.17-13.04-13.56,3.13-30.07,5.74-41.54,5.91-2.09,11.82-3.13,24.16-3.13,36.15,0,15.82,4.17,30.42,4.17,33.37,0,1.91-.87,3.65-3.13,3.65-9.04,0-18.42-8.34-18.42-19.99,0-17.21,2.26-35.81,5.91-54.23-24.86-4.17-29.9-20.69-29.9-30.42,0-12.86,3.13-19.99,5.73-19.99,1.22,0,1.74.35,1.74,1.04ZM986.06,538c-1.39-25.03-5.04-52.84-13.21-66.22-4.35,8.17-16.86,36.15-24.51,70.22h4.35c11.3,0,23.29-1.91,33.37-4Z"/>
        <path d="M1077.15,497.67c0,5.39-3.48,6.43-3.48,15.99,0,11.82,3.48,21.9,10.26,21.9,4.69,0,7.82-5.21,9.04-5.21.35,0,.52.52.52,1.56,0,2.78-5.39,10.43-13.56,10.43-4,0-9.91-.52-16.86-7.47-4.69-4.69-7.3-12.69-8.52-19.99-6.95,14.6-10.6,37.55-10.6,49.54h-.17c.52,9.21,1.91,19.82,1.91,21.73,0,2.43-4.35,5.04-8.34,5.04s-11.64-5.39-14.25-7.82c-.52-.52-.7-1.74-.7-3.65,0-6.95,2.78-23.47,2.78-49.54,0-13.21-6.08-16.86-6.08-20.51,0-1.91,4.87-6.43,10.78-6.43,5.39,0,14.95,5.74,15.64,17.56,2.61-6.95,5.74-11.99,8.34-15.47,0-8.17,8-15.3,14.25-15.3s9.04,2.43,9.04,7.65Z"/>
        <path d="M1124.95,594.32c-4.35-4.35-5.91-20.34-6.26-37.37-4,16.17-9.74,34.76-15.3,34.76-15.47,0-21.21-11.65-21.21-25.2,0-51.1,16.34-62.92,29.9-62.92,2.26,0,6.08,1.04,9.21,4.52,3.13-25.38,8.17-45.89,10.95-48.67,1.56-1.56,3.3-2.26,5.21-2.26,5.91,0,12.34,6.6,12.34,9.21,0,3.83-15.3,43.98-15.3,99.25,0,21.21,5.39,28.33,7.65,28.33,10.26,0,15.3-42.24,15.82-47.45.17-1.56.69-2.09,1.56-2.09,1.91,0,4.87,3.48,4.87,6.95v.35c-.87,12.69-5.04,51.45-21.9,51.45-5.91,0-12.34-3.82-17.56-8.86ZM1099.92,570.16c0,9.04,1.22,11.99,3.65,11.99,4.87,0,13.91-42.06,15.82-53.71l.52-6.78c-.52-5.04-1.91-10.26-5.21-10.26-8.34,0-14.77,31.64-14.77,58.75Z"/>
        <path d="M1186.84,557.12c-4,16.17-9.74,34.94-15.3,34.94-15.47,0-21.21-11.64-21.21-25.38,0-50.93,16.34-62.92,29.9-62.92,3.65,0,7.47,1.04,10.26,4.52,1.56-2.95,3.48-4.52,5.74-4.52,4.69,0,12.34,6.26,12.34,9.39,0,2.61-3.48,33.03-3.48,48.32,0,12.86,3.83,18.6,6.61,18.6,3.5,0,5.75-6.74,6.71-9.2,1.18-3.04,2.12-6.18,2.9-9.35.82-3.32,1.11-6.81,2.02-10.08.26-.93.61-1.71,1.34-2.38.78-.71,1.78-1.16,2.81-1.42,1.23-.3,2.73-.26,3.53.72.74.9.61,2.24.14,3.3-.59,1.36-1.41,2.08-1.42,3.57,0,.62-.08,1.24-.14,1.86-.15,1.45-.36,2.89-.59,4.33-.62,3.83-1.45,7.62-2.49,11.36-1.98,7.13-4.75,15.86-10.81,20.64-1.75,1.38-3.84,2.29-6.09,2.29-10.95,0-19.82-14.08-22.77-38.59ZM1168.24,570.5c0,9.04,1.22,11.82,3.48,11.82,4,0,10.78-28.16,14.25-44.85,0-7.47.52-14.08,1.56-19.47-.87-3.48-2.09-6.26-4.52-6.26-8.34,0-14.77,31.64-14.77,58.75Z"/>
        <path d="M1440.33,458.04c4,0,12.69,8.34,12.69,13.04,0,17.38-13.21,39.46-26.94,50.41,12.17,21.73,14.77,63.62,31.29,63.62h.35c1.39,0,2.43,0,2.43,1.56,0,5.04-8.17,18.77-19.99,18.77-24.16,0-15.3-56.67-26.59-77.35-1.04.35-2.09.35-3.13.35-2.95,0-5.21-.35-6.95-1.04-1.65,25.56-2.07,56.3-23.26,74.1-1.64,1.38-3.41,2.68-5.45,3.35s-4.41.61-6.18-.59c-1.75-1.19-2.67-3.32-2.85-5.43s.31-4.21.87-6.24c3.28-11.81,10.82-21.61,14.29-33.29,4.45-14.97,5.01-31.18,5.01-46.68,0-34.24-6.43-41.72-6.43-46.06,0-1.74,2.09-2.61,4.87-2.61,4.69,0,11.47,2.43,16.34,7.3,2.43,2.61,3.65,14.25,3.65,29.2,0,2.95-.17,6.08-.17,9.21,1.39-.35,2.95-.7,4.87-.7,3.65,0,6.95,1.39,9.73,3.65,12.34-12.17,19.47-34.94,19.47-51.8,0-1.91.87-2.78,2.09-2.78Z"/>
        <path d="M1531.07,548.43c.17-1.56.7-2.09,1.56-2.09,1.91,0,4.87,3.48,4.87,6.95v.35c-.35,4.69-.52,12.34-2.61,19.82-3.65,12.86-10.08,18.08-17.03,18.08-16.34,0-19.64-18.42-20.51-30.59-3.48,15.3-9.39,32.68-13.73,32.68-4,0-12.17-1.56-17.03-6.95-2.96-3.3-4-14.08-4-26.77,0-22.6,3.48-51.28,6.61-54.4.52-.52,1.39-.7,2.26-.7,4.35,0,12.51,4.87,12.51,9.39,0,4.87-4.52,14.08-4.52,52.84,0,8,.87,13.73,3.65,13.73,2.96,0,11.3-24.68,14.08-40.85.52-13.21,2.43-24.51,4.35-26.59.87-1.04,2.43-1.56,4.17-1.56,5.21,0,12.69,4.35,12.69,11.3,0,1.91-2.61,22.42-2.61,37.55,0,10.08,2.43,19.12,5.74,19.12,1.74,0,3.83-2.78,5.91-9.56,2.78-9.21,3.48-19.12,3.65-21.73Z"/>
        <path d="M1548.8,565.29c0-13.91,3.48-36.5,3.48-41.02,0-3.83-5.91-6.43-12.17-8.87-.7,24.68-2.96,42.07-2.96,42.07,0,0,0,.69-.87.69-2.09-.35-5.73-2.09-5.73-4.17v-.35s2.26-15.47,2.61-41.02c-5.21-2.09-9.21-4.52-9.21-8s5.21-5.91,9.73-5.91c3.48,0,6.61,1.39,6.61,4.87v5.21c10.95,4,30.77,10.08,30.77,18.25,0,5.91-3.65,37.89-3.65,47.28,0,8.69,1.74,11.82,4,11.82,10.43,0,13.91-33.9,14.25-37.72.17-1.56.7-2.09,1.56-2.09,1.91,0,4.87,3.48,4.87,6.95v.35c-.87,12.69-5.56,40.33-22.42,40.33s-20.86-14.95-20.86-28.68Z"/>
        <path d="M1576.62,505.67c1.04-1.04,5.56-1.74,11.3-2.09,1.91-20.51,5.04-38.41,7.82-41.2,1.56-1.56,3.3-2.26,5.21-2.26,5.91,0,12.34,6.61,12.34,9.21,0,2.43-4.69,13.21-8,34.07,6.78.35,12.69,1.22,14.08,2.61.87.87,1.22,1.74,1.22,2.43,0,2.09-2.43,3.83-3.48,3.83-2.43,0-3.13-2.61-12.69-3.3-1.56,10.78-2.43,23.81-2.43,39.28,0,19.82,7.47,30.59,14.78,30.59,11.47,0,14.6-25.2,15.12-30.42.18-1.56.7-2.09,1.56-2.09,1.91,0,4.87,3.3,4.87,6.78v.52c-1.22,13.04-7.65,39.98-22.94,39.98-5.91,0-16.17-3.65-22.94-10.43-5.91-5.91-6.26-25.73-6.26-45.19,0-8.69.52-18.43,1.22-27.99-5.04,1.22-5.39,3.3-7.13,3.3-2.43,0-5.04-1.39-5.04-3.48,0-1.56.17-2.96,1.39-4.17Z"/>
        <path d="M1699.34,548.43c.17-1.56.7-2.09,1.56-2.09,1.91,0,4.87,3.48,4.87,6.95v.35c-.35,4.69-.52,12.34-2.61,19.82-3.65,12.86-10.08,18.08-17.03,18.08-16.34,0-19.64-18.42-20.51-30.59-3.48,15.3-9.39,32.68-13.73,32.68-4,0-12.17-1.56-17.03-6.95-2.96-3.3-4-14.08-4-26.77,0-22.6,3.48-51.28,6.61-54.4.52-.52,1.39-.7,2.26-.7,4.35,0,12.51,4.87,12.51,9.39,0,4.87-4.52,14.08-4.52,52.84,0,8,.87,13.73,3.65,13.73,2.96,0,11.3-24.68,14.08-40.85.52-13.21,2.43-24.51,4.35-26.59.87-1.04,2.43-1.56,4.17-1.56,5.21,0,12.69,4.35,12.69,11.3,0,1.91-2.61,22.42-2.61,37.55,0,10.08,2.43,19.12,5.74,19.12,1.74,0,3.83-2.78,5.91-9.56,2.78-9.21,3.48-19.12,3.65-21.73Z"/>
        <path d="M1705.42,585.28c-5.04-5.04-6.43-25.55-6.43-45.02,0-29.9,5.04-71.61,9.21-75.61,1.56-1.56,3.3-2.26,5.21-2.26,5.91,0,12.34,6.43,12.34,9.21,0,3.65-10.95,27.64-10.95,85,0,21.38,5.04,24.33,7.3,24.33,4.17,0,10.43-13.21,12.34-27.29,0-.52.7-.87,1.56-.87,1.91,0,5.04,1.39,5.04,3.48,0,6.26-3.82,37.89-18.25,37.89-5.91,0-12.34-3.65-17.38-8.86Z"/>
        <path d="M1770.61,559.03c-4,16.17-9.74,34.94-15.3,34.94-15.47,0-21.21-11.64-21.21-25.38,0-50.93,16.34-62.92,29.9-62.92,3.65,0,7.47,1.04,10.26,4.52,1.56-2.95,3.48-4.52,5.74-4.52,4.69,0,12.34,6.26,12.34,9.39,0,2.61-3.48,33.03-3.48,48.32,0,12.86,3.83,18.6,6.61,18.6,4.17,0,9.56-14.25,11.47-28.33,0-.52.7-.87,1.56-.87,1.91,0,5.04,1.39,5.04,3.48,0,6.26-5.74,41.37-20.16,41.37-10.95,0-19.82-14.08-22.77-38.59ZM1752.01,572.41c0,9.04,1.22,11.82,3.48,11.82,4,0,10.78-28.16,14.25-44.85,0-7.47.52-14.08,1.56-19.47-.87-3.48-2.09-6.26-4.52-6.26-8.34,0-14.77,31.64-14.77,58.75Z"/>
        <path d="M1841.87,553.64c0-15.64,4.69-32.68,4.69-38.07,0-1.04-.17-1.74-.7-1.74-3.13,0-14.95,22.07-20.16,46.06-.17,12.69-1.04,22.42-1.04,22.42.52.52.87,1.91.87,3.3,0,2.26-.87,4.69-4.17,4.69-6.6,0-18.08-6.95-18.08-15.47s4.69-13.56,4.69-52.49c0-9.39-6.78-14.6-6.78-16.69,0-2.26,2.43-4.35,4.35-4.35,1.74,0,5.21.17,9.21,4.17,6.43,6.43,9.21,20.51,10.43,34.94,7.3-17.38,16.86-35.11,22.6-35.11,15.47,0,19.99,8,19.99,11.64,0,5.21-3.65,28.33-3.65,46.24,0,12.34,1.74,22.25,7.65,22.25,9.04,0,13.38-34.94,13.91-39.98.18-1.56.87-2.26,1.74-2.26,1.91,0,4.69,3.48,4.69,6.78v.52c-1.39,13.21-4.35,46.93-23.81,46.93-15.99,0-26.42-17.73-26.42-43.8Z"/>
      </g>
      <g>
        <path class="cls-3" d="M154.48,493.7v-93.8h17.96l39.93,66.2h-9.51l39.13-66.2h18.09v93.8h-20.23l-.27-62.58h4.02l-31.62,52.53h-9.65l-32.03-52.53h4.42v62.58h-20.23Z"/>
        <path class="cls-3" d="M304.29,493.7v-38.32l4.96,13.13-41.41-68.61h23.18l31.62,52.53h-13.27l31.76-52.53h21.17l-41.14,68.61,4.96-13.13v38.32h-21.84Z"/>
        <path class="cls-4" d="M151.33,570.7v-67.2h29.09c6.01,0,11.2.98,15.55,2.93,4.35,1.95,7.71,4.75,10.08,8.4,2.37,3.65,3.55,7.97,3.55,12.96s-1.19,9.39-3.55,13.01c-2.37,3.62-5.73,6.42-10.08,8.4-4.35,1.98-9.54,2.98-15.55,2.98h-20.54l7.1-7.01v25.54h-15.65ZM166.98,546.89l-7.1-7.39h19.68c4.74,0,8.32-1.02,10.75-3.07,2.43-2.05,3.65-4.93,3.65-8.64s-1.22-6.58-3.65-8.59c-2.43-2.02-6.02-3.02-10.75-3.02h-19.68l7.1-7.39v38.11Z"/>
        <path class="cls-4" d="M254.24,571.85c-5.31,0-10.21-.86-14.69-2.59-4.48-1.73-8.38-4.16-11.71-7.3-3.33-3.14-5.9-6.82-7.73-11.04-1.82-4.22-2.74-8.83-2.74-13.82s.91-9.68,2.74-13.87c1.82-4.19,4.4-7.86,7.73-10.99,3.33-3.14,7.21-5.57,11.66-7.3,4.45-1.73,9.33-2.59,14.64-2.59s10.19.85,14.64,2.54c4.45,1.7,8.34,4.11,11.66,7.25,3.33,3.14,5.9,6.82,7.73,11.04,1.82,4.22,2.74,8.87,2.74,13.92s-.91,9.62-2.74,13.87c-1.82,4.26-4.4,7.95-7.73,11.09-3.33,3.14-7.22,5.55-11.66,7.25-4.45,1.7-9.3,2.54-14.54,2.54ZM254.14,558.7c3.01,0,5.77-.53,8.3-1.58,2.53-1.06,4.75-2.56,6.67-4.51,1.92-1.95,3.41-4.22,4.46-6.82,1.06-2.59,1.58-5.49,1.58-8.69s-.53-6.1-1.58-8.69c-1.06-2.59-2.54-4.86-4.46-6.82-1.92-1.95-4.14-3.46-6.67-4.51-2.53-1.06-5.3-1.58-8.3-1.58s-5.79.53-8.35,1.58c-2.56,1.06-4.79,2.56-6.67,4.51-1.89,1.95-3.36,4.22-4.42,6.82-1.06,2.59-1.58,5.49-1.58,8.69s.53,6.1,1.58,8.69c1.06,2.59,2.53,4.87,4.42,6.82,1.89,1.95,4.11,3.46,6.67,4.51,2.56,1.06,5.34,1.58,8.35,1.58Z"/>
        <path class="cls-4" d="M302.62,570.7v-67.2h28.7c9.34,0,16.61,2.16,21.79,6.48,5.18,4.32,7.78,10.26,7.78,17.81,0,5.06-1.19,9.39-3.55,13.01-2.37,3.62-5.73,6.37-10.08,8.26-4.35,1.89-9.54,2.83-15.55,2.83h-20.54l7.1-6.72v25.54h-15.65ZM318.27,546.89l-7.1-7.39h19.68c4.74,0,8.32-1.02,10.75-3.07,2.43-2.05,3.65-4.93,3.65-8.64s-1.22-6.58-3.65-8.59c-2.43-2.02-6.02-3.02-10.75-3.02h-19.68l7.1-7.39v38.11ZM345.44,570.7l-16.9-24.38h16.7l16.9,24.38h-16.7Z"/>
        <path class="cls-4" d="M386.14,570.7v-54.53h-21.5v-12.67h58.56v12.67h-21.5v54.53h-15.55Z"/>
        <path class="cls-4" d="M431.55,570.7v-67.2h50.78v12.48h-35.14v54.72h-15.65ZM445.95,546.22v-12.48h32.26v12.48h-32.26Z"/>
        <path class="cls-4" d="M524.86,571.85c-5.31,0-10.21-.86-14.69-2.59-4.48-1.73-8.38-4.16-11.71-7.3-3.33-3.14-5.9-6.82-7.73-11.04-1.82-4.22-2.74-8.83-2.74-13.82s.91-9.68,2.74-13.87c1.82-4.19,4.4-7.86,7.73-10.99,3.33-3.14,7.21-5.57,11.66-7.3,4.45-1.73,9.33-2.59,14.64-2.59s10.19.85,14.64,2.54c4.45,1.7,8.34,4.11,11.66,7.25,3.33,3.14,5.9,6.82,7.73,11.04,1.82,4.22,2.74,8.87,2.74,13.92s-.91,9.62-2.74,13.87c-1.82,4.26-4.4,7.95-7.73,11.09-3.33,3.14-7.22,5.55-11.66,7.25-4.45,1.7-9.3,2.54-14.54,2.54ZM524.77,558.7c3.01,0,5.77-.53,8.3-1.58,2.53-1.06,4.75-2.56,6.67-4.51,1.92-1.95,3.41-4.22,4.46-6.82,1.06-2.59,1.58-5.49,1.58-8.69s-.53-6.1-1.58-8.69c-1.06-2.59-2.54-4.86-4.46-6.82-1.92-1.95-4.14-3.46-6.67-4.51-2.53-1.06-5.3-1.58-8.3-1.58s-5.79.53-8.35,1.58c-2.56,1.06-4.79,2.56-6.67,4.51-1.89,1.95-3.36,4.22-4.42,6.82-1.06,2.59-1.58,5.49-1.58,8.69s.53,6.1,1.58,8.69c1.06,2.59,2.53,4.87,4.42,6.82,1.89,1.95,4.11,3.46,6.67,4.51,2.56,1.06,5.34,1.58,8.35,1.58Z"/>
        <path class="cls-4" d="M573.25,570.7v-67.2h15.65v54.53h33.5v12.67h-49.15Z"/>
        <path class="cls-4" d="M631.23,570.7v-67.2h15.65v67.2h-15.65Z"/>
        <path class="cls-4" d="M695.36,571.85c-5.31,0-10.21-.86-14.69-2.59-4.48-1.73-8.38-4.16-11.71-7.3-3.33-3.14-5.9-6.82-7.73-11.04-1.82-4.22-2.74-8.83-2.74-13.82s.91-9.68,2.74-13.87c1.82-4.19,4.4-7.86,7.73-10.99,3.33-3.14,7.21-5.57,11.66-7.3,4.45-1.73,9.33-2.59,14.64-2.59s10.19.85,14.64,2.54c4.45,1.7,8.34,4.11,11.66,7.25,3.33,3.14,5.9,6.82,7.73,11.04,1.82,4.22,2.74,8.87,2.74,13.92s-.91,9.62-2.74,13.87c-1.82,4.26-4.4,7.95-7.73,11.09-3.33,3.14-7.22,5.55-11.66,7.25-4.45,1.7-9.3,2.54-14.54,2.54ZM695.26,558.7c3.01,0,5.77-.53,8.3-1.58,2.53-1.06,4.75-2.56,6.67-4.51,1.92-1.95,3.41-4.22,4.46-6.82,1.06-2.59,1.58-5.49,1.58-8.69s-.53-6.1-1.58-8.69c-1.06-2.59-2.54-4.86-4.46-6.82-1.92-1.95-4.14-3.46-6.67-4.51-2.53-1.06-5.3-1.58-8.3-1.58s-5.79.53-8.35,1.58c-2.56,1.06-4.79,2.56-6.67,4.51-1.89,1.95-3.36,4.22-4.42,6.82-1.06,2.59-1.58,5.49-1.58,8.69s.53,6.1,1.58,8.69c1.06,2.59,2.53,4.87,4.42,6.82,1.89,1.95,4.11,3.46,6.67,4.51,2.56,1.06,5.34,1.58,8.35,1.58Z"/>
      </g>
    </g>
  </g>
</svg>