<?xml version="1.0" encoding="UTF-8"?>
<svg xmlns="http://www.w3.org/2000/svg" viewBox="0 0 681.92 250.1">
  <defs>
    <style>
      .cls-1 {
        opacity: .5;
      }

      .cls-1, .cls-2 {
        fill: #fff;
      }

      .cls-1, .cls-3 {
        mix-blend-mode: multiply;
      }

      .cls-4 {
        isolation: isolate;
      }

      .cls-5, .cls-3 {
        fill: #63d1d6;
      }

      .cls-6 {
        fill: #168099;
      }
    </style>
  </defs>
  <g class="cls-4">
    <g id="Laag_2" data-name="Laag 2">
      <g id="TEXTS">
        <g>
          <g>
            <g>
              <path class="cls-5" d="M221.82,223.94c.05,2.93-.36,5.76-1.18,8.4-3.16,10.29-12.32,17.76-23.17,17.76H24.34C10.71,250.1-.26,238.31,0,223.94l.54-26.97.98-49.37,1.49-74.55c.16-8.62,4.41-16.58,11.35-21.19L98.4,3.96C102.18,1.46,106.44.15,110.73.01h0c.06-.01.12,0,.19,0,.06,0,.11-.01.17-.01h0c4.29.15,8.54,1.46,12.33,3.96l25.04,14.27,51.13,29.14,7.87,4.49c6.93,4.61,11.19,12.57,11.35,21.19l1.16,57.92.56,28.81,1.29,64.16Z"/>
              <g>
                <path class="cls-2" d="M221.82,223.94c.26,14.37-10.71,26.16-24.34,26.16H24.35C10.71,250.1-.26,238.31,0,223.94l1.52-76.34c11.24-7.37,27.88-19.07,29.01-20.02,0,0,.03,0,.08.01.24.1,1.04.47,2.2.97.16.08.33.15.5.23.36.15.74.33,1.14.5.4.18.82.35,1.26.55,4.37,1.91,10.24,4.49,12.3,5.38.48.2.75.33.77.33.68,0,41.89-31.55,42.79-32.09h.01c.09.03.2.05.31.09.13.05.28.1.43.14,2.23.67,8.77,2.63,12.17,3.65.04.03.08.03.11.04.2.06.39.11.55.16.78.24,1.31.39,1.45.43.03.01.04.01.04.01.01,0,23.05-12.23,23.38-12.07.08.03.16.09.26.18.01.01.03.03.05.04.05.03.1.08.16.11.06.05.11.09.19.14.1.08.2.15.31.26.01.01.01,0,.01,0,.11.09.24.19.36.3.05.05.1.09.15.14l.26.23c.15.11.3.26.47.4.09.08.16.14.24.21.25.24.53.48.8.73.2.16.39.34.59.53.15.15.3.29.47.45,2.99,2.74,7.21,6.78,11.76,11.21.31.3.64.62.97.93.48.47.97.94,1.46,1.42.16.16.33.31.49.49,4.92,4.81,10.03,9.84,14.3,14.07.29.29.57.57.84.84,1.67,1.65,3.2,3.17,4.52,4.48.23.21.43.43.64.64.42.4.81.79,1.17,1.16.18.18.35.35.53.52h0c.5.52.94.96,1.32,1.32.01,0,.03.01.04.03.03.03.05.06.08.09.2.21.38.39.54.54.06.06.13.11.18.16.03.04.05.06.08.09.14.15.26.26.34.34h.01s.03.04.04.05l.04.04s.04.01.04.01c0,0,32.52-11.32,32.6-11.34.03-.01.09.01.2.04h.01c1.36.33,8.87,2.73,13.41,4.2l.57,28.81,1.28,64.16Z"/>
                <path class="cls-1" d="M203.39,175.48l8.76-32.91-8.76-8.24,2.77-7.5.39-.06h.01c1.36.33,8.87,2.73,13.41,4.2l.57,28.81-17.15,15.7Z"/>
                <path class="cls-1" d="M48.79,135.58c-1.79,3.72-8.45,11.58-8.45,11.58l-26.17,17.12,12.04-16.29-2.45-4.58,6.78-15.83s.03.01.08.02c1.07.47,14.1,6.2,17.42,7.63.21.16.47.27.75.34Z"/>
                <path class="cls-1" d="M106.66,107.99c-4.85,12.51-37.75,58.22-37.78,58.25-.44.29,24.11-48.48,24.64-49.28-.57.39-10.39,4.24-10.39,4.24l8.46-17.73c2.26.75,15.07,4.52,15.07,4.52Z"/>
                <path class="cls-1" d="M173.74,138.07l-50.67,48.8s11.37-50.19,11.35-50.21l-16.42,10.14,13.3-32.55-1.27-18.33c3.01,1.51,43.72,42.15,43.72,42.15Z"/>
              </g>
            </g>
            <g>
              <path class="cls-6" d="M213.94,226.22c-2.97,9.66-11.57,16.68-21.76,16.68H26.57c-12.8,0-19.1-11.07-18.86-24.57l.51-25.33c26.95-1.55,122.33-3.94,205.72,33.22Z"/>
              <g>
                <polygon class="cls-6" points="31.32 176.35 35.73 178.69 29.04 156.65 31.32 157.36 25.38 134.2 19.44 157.36 21.73 156.65 15.03 178.69 19.44 176.35 13.38 194.36 18.58 194.36 24.38 194.36 26.39 194.36 37.38 194.36 31.32 176.35"/>
                <polygon class="cls-6" points="200.15 202.61 206.22 205.83 197 175.48 200.15 176.46 191.97 144.57 183.79 176.46 186.93 175.48 177.72 205.83 183.79 202.61 175.45 227.42 182.6 227.42 190.58 227.42 193.35 227.42 208.49 227.42 200.15 202.61"/>
                <polygon class="cls-6" points="53.11 181.54 56.98 183.59 51.1 164.26 53.11 164.88 47.9 144.57 42.69 164.88 44.69 164.26 38.82 183.59 42.69 181.54 37.38 197.33 41.93 197.33 47.02 197.33 48.78 197.33 58.42 197.33 53.11 181.54"/>
              </g>
            </g>
          </g>
          <g>
            <path class="cls-2" d="M367.65,94.68l-21.89,68.4h-24.72l-11.04-36.55-11.63,36.55h-24.72l-21.89-68.4h23.75l11.92,38.89,12.61-38.89h21.21l11.92,39.38,12.61-39.38h21.89Z"/>
            <path class="cls-2" d="M372.73,94.68h23.06v68.4h-23.06v-68.4Z"/>
            <path class="cls-2" d="M474.36,94.68v68.4h-18.96l-25.99-31.07v31.07h-22.47v-68.4h18.96l25.99,31.07v-31.07h22.48Z"/>
            <path class="cls-2" d="M500.35,112.57h-20.03v-17.88h63.13v17.88h-20.03v50.52h-23.06v-50.52Z"/>
            <path class="cls-2" d="M606.27,145.69v17.39h-56.87v-68.4h55.6v17.39h-32.93v8.01h28.92v16.61h-28.92v8.99h34.2Z"/>
            <path class="cls-2" d="M644.48,145.89h-6.25v17.2h-23.06v-68.4h32.93c19.05,0,31.17,9.97,31.17,25.8,0,9.87-4.69,17.3-12.9,21.5l14.36,21.11h-24.62l-11.63-17.2ZM646.63,112.47h-8.4v16.03h8.4c6.35,0,9.38-3.03,9.38-8.01s-3.03-8.01-9.38-8.01Z"/>
            <path class="cls-3" d="M283.36,217.64h-16.23l-2.87,7.44h-14.64l18.67-42.7h14.15l18.67,42.7h-14.89l-2.87-7.44ZM279.39,207.27l-4.15-10.74-4.15,10.74h8.3Z"/>
            <path class="cls-3" d="M306.48,182.38h21.05c14.28,0,24.1,8.11,24.1,21.35s-9.82,21.35-24.1,21.35h-21.05v-42.7ZM326.92,213.86c6.04,0,10.19-3.6,10.19-10.13s-4.15-10.13-10.19-10.13h-6.04v20.25h6.04Z"/>
            <path class="cls-3" d="M404.03,182.38l-18.06,42.7h-14.15l-18.06-42.7h15.5l10.19,24.95,10.43-24.95h14.15Z"/>
            <path class="cls-3" d="M443.99,214.23v10.86h-35.5v-42.7h34.71v10.86h-20.56v5h18.06v10.37h-18.06v5.61h21.35Z"/>
            <path class="cls-3" d="M494.69,182.38v42.7h-11.83l-16.23-19.4v19.4h-14.03v-42.7h11.83l16.23,19.4v-19.4h14.03Z"/>
            <path class="cls-3" d="M513.97,193.55h-12.51v-11.16h39.41v11.16h-12.51v31.54h-14.4v-31.54Z"/>
            <path class="cls-3" d="M546.67,205.87v-23.49h14.4v23.06c0,6.53,2.5,8.97,6.53,8.97s6.53-2.44,6.53-8.97v-23.06h14.15v23.49c0,12.81-7.69,20.19-20.8,20.19s-20.8-7.38-20.8-20.19Z"/>
            <path class="cls-3" d="M616.22,214.35h-3.9v10.74h-14.4v-42.7h20.56c11.9,0,19.46,6.22,19.46,16.11,0,6.16-2.93,10.8-8.05,13.42l8.97,13.18h-15.37l-7.26-10.74ZM617.56,193.49h-5.25v10h5.25c3.96,0,5.86-1.89,5.86-5s-1.89-5-5.86-5Z"/>
            <path class="cls-3" d="M681.92,214.23v10.86h-35.5v-42.7h34.71v10.86h-20.56v5h18.06v10.37h-18.06v5.61h21.35Z"/>
          </g>
        </g>
      </g>
    </g>
  </g>
</svg>